<svg xmlns="http://www.w3.org/2000/svg" viewBox="0 -765 520 769"
     data-cap-h="1.2524" data-cap-w="0.8469" data-cap-drop="0.0928">
  <path fill="currentColor" transform="scale(1,-1)" d="M483 356C483 414 461 468 422 509C455 524 470 567 457 608C445 643 415 667 383 667C376 667 369 666 363 664C345 658 330 643 323 624C316 607 315 589 320 571C302 576 284 578 265 579V760C265 763 263 765 260 765C257 765 255 763 255 760V579C236 578 218 576 200 571C205 589 204 607 197 624C190 643 175 658 157 664C151 666 144 667 137 667C105 667 75 643 63 608C50 567 65 524 98 509C59 468 37 414 37 356C37 290 66 228 117 185C107 172 101 152 101 128C101 85 120 53 146 53C172 53 191 85 191 128C191 134 191 139 190 144C211 137 233 134 255 133V0C255 -2 257 -4 260 -4C263 -4 265 -2 265 0V133C287 134 309 137 330 144C329 139 329 134 329 128C329 85 348 53 374 53C400 53 419 85 419 128C419 152 413 172 403 185C454 228 483 290 483 356ZM351 613C355 624 363 632 373 635C376 636 379 637 383 637C402 637 421 621 428 598C437 570 428 542 406 535C403 534 399 533 396 533C377 533 358 549 350 572C346 586 346 601 351 613ZM339 532C351 518 366 508 383 505C417 477 440 439 449 397C446 390 441 383 435 376C422 421 398 459 367 486C357 495 342 494 333 484C325 474 326 459 336 450C337 448 339 447 341 445C326 437 311 430 305 428C301 429 294 434 290 436C282 442 276 446 271 448C278 452 283 459 283 468C283 479 275 488 265 490V549C291 548 316 543 339 532ZM159 422C204 397 213 397 216 397C224 397 232 402 246 412C249 413 252 415 255 417V319C206 320 160 330 126 347C133 375 144 401 159 422ZM265 417C268 415 271 413 274 412C288 402 296 397 304 397C307 397 316 397 361 422C376 401 387 375 394 347C360 330 314 320 265 319ZM255 490C245 488 237 479 237 468C237 459 242 452 249 448C244 446 238 442 230 436C226 434 219 429 215 428C209 430 194 437 179 445C181 447 183 448 184 450C194 459 195 474 187 484C178 494 163 495 153 486C122 459 98 421 85 376C79 383 74 390 71 397C80 439 103 477 137 505C154 508 169 518 181 532C204 543 229 548 255 549ZM92 598C99 621 118 637 137 637C141 637 144 636 147 635C157 632 165 624 169 613C174 601 174 586 170 572C162 549 143 533 124 533C121 533 117 534 114 535C92 542 83 570 92 598ZM146 83C142 83 131 99 131 128C131 157 142 173 146 173C150 173 161 157 161 128C161 99 150 83 146 83ZM178 181C170 195 159 203 146 203C145 203 144 203 143 203C96 238 69 293 67 351C105 314 175 290 255 289V163C228 164 202 170 178 181ZM265 163V289C345 290 415 314 453 351C451 293 424 238 377 203C376 203 375 203 374 203C361 203 350 195 342 181C318 170 292 164 265 163ZM374 83C370 83 359 99 359 128C359 157 370 173 374 173C378 173 389 157 389 128C389 99 378 83 374 83Z"/>
</svg>
